<?xml version="1.0" encoding="UTF-8" standalone="no"?>
<!-- Created with Inkscape (http://www.inkscape.org/) -->

<svg
   width="34.570713mm"
   height="34.570713mm"
   viewBox="0 0 34.570713 34.570713"
   version="1.1"
   id="svg881"
   inkscape:version="1.1.2 (0a00cf5339, 2022-02-04)"
   sodipodi:docname="fb_icon (copy).svg"
   xmlns:inkscape="http://www.inkscape.org/namespaces/inkscape"
   xmlns:sodipodi="http://sodipodi.sourceforge.net/DTD/sodipodi-0.dtd"
   xmlns="http://www.w3.org/2000/svg"
   xmlns:svg="http://www.w3.org/2000/svg">
  <sodipodi:namedview
     id="namedview883"
     pagecolor="#ffffff"
     bordercolor="#666666"
     borderopacity="1.0"
     inkscape:pageshadow="2"
     inkscape:pageopacity="0.0"
     inkscape:pagecheckerboard="0"
     inkscape:document-units="mm"
     showgrid="false"
     fit-margin-top="0"
     fit-margin-left="0"
     fit-margin-right="0"
     fit-margin-bottom="0"
     inkscape:zoom="0.4187009"
     inkscape:cx="440.64868"
     inkscape:cy="99.116099"
     inkscape:window-width="1328"
     inkscape:window-height="704"
     inkscape:window-x="0"
     inkscape:window-y="0"
     inkscape:window-maximized="1"
     inkscape:current-layer="layer1" />
  <defs
     id="defs878" />
  <g
     inkscape:label="Layer 1"
     inkscape:groupmode="layer"
     id="layer1"
     transform="translate(-169.12954,-148.27634)">
    <g
       id="g28"
       transform="matrix(0.17638888,0,0,-0.17638888,188.61976,149.39275)"
       style="fill:#ffffff">
      <path
         d="m 0,0 c -20.711,0 -37.5,-16.789 -37.5,-37.5 v -29.167 h -20.833 c -2.302,0 -4.167,-1.865 -4.167,-4.166 v -33.334 c 0,-2.301 1.865,-4.166 4.167,-4.166 H -37.5 v -70.834 c 0,-2.301 1.865,-4.166 4.167,-4.166 H 0 c 2.301,0 4.167,1.865 4.167,4.166 v 70.834 H 25 c 1.912,0 3.579,1.302 4.042,3.158 l 8.333,33.333 c 0.557,2.233 -0.802,4.495 -3.034,5.051 -0.33,0.083 -0.668,0.124 -1.008,0.124 H 4.167 v 12.5 c 0,6.904 5.596,12.5 12.5,12.5 h 16.666 c 2.302,0 4.167,1.866 4.167,4.167 V -4.167 C 37.5,-1.865 35.635,0 33.333,0 Z"
         style="fill:#ffffff;fill-opacity:1;fill-rule:nonzero;stroke:none"
         id="path30" />
    </g>
  </g>
</svg>
