<?xml version="1.0" encoding="UTF-8" standalone="no"?>
<!-- Created with Inkscape (http://www.inkscape.org/) -->

<svg
   width="34.570713mm"
   height="34.570713mm"
   viewBox="0 0 34.570713 34.570713"
   version="1.1"
   id="svg881"
   inkscape:version="1.1.2 (0a00cf5339, 2022-02-04)"
   sodipodi:docname="lk_icon (copy).svg"
   xmlns:inkscape="http://www.inkscape.org/namespaces/inkscape"
   xmlns:sodipodi="http://sodipodi.sourceforge.net/DTD/sodipodi-0.dtd"
   xmlns="http://www.w3.org/2000/svg"
   xmlns:svg="http://www.w3.org/2000/svg">
  <sodipodi:namedview
     id="namedview883"
     pagecolor="#ffffff"
     bordercolor="#666666"
     borderopacity="1.0"
     inkscape:pageshadow="2"
     inkscape:pageopacity="0.0"
     inkscape:pagecheckerboard="0"
     inkscape:document-units="mm"
     showgrid="false"
     fit-margin-top="0"
     fit-margin-left="0"
     fit-margin-right="0"
     fit-margin-bottom="0"
     inkscape:zoom="0.4187009"
     inkscape:cx="440.64868"
     inkscape:cy="99.116099"
     inkscape:window-width="1328"
     inkscape:window-height="704"
     inkscape:window-x="0"
     inkscape:window-y="0"
     inkscape:window-maximized="1"
     inkscape:current-layer="layer1" />
  <defs
     id="defs878" />
  <g
     inkscape:label="Layer 1"
     inkscape:groupmode="layer"
     id="layer1"
     transform="translate(-169.12954,-148.27634)">
    <g
       id="g36"
       transform="matrix(0.17638888,0,0,-0.17638889,180.53533,159.68204)"
       style="fill:#ffffff;fill-opacity:1.0">
      <path
         d="M 0,0 H 37.5 V -16.217 C 43.467,-8.375 56.217,0 79.167,0 115.25,0 125,-36 125,-58.333 V -125 H 83.333 v 66.667 c 0,8.333 -4.166,25 -20.833,25 -11.833,0 -20.167,-8.4 -25,-16.259 V -125 H 0 Z m -16.667,0 h -41.667 v -125 h 41.667 z M -37.5,16.667 c 11.506,0 20.833,9.327 20.833,20.833 0,11.506 -9.327,20.833 -20.833,20.833 -11.506,0 -20.833,-9.327 -20.833,-20.833 0,-11.506 9.327,-20.833 20.833,-20.833"
         style="fill:#ffffff;fill-opacity:1.0;fill-rule:evenodd;stroke:none"
         id="path38" />
    </g>
  </g>
</svg>
