<?xml version="1.0" encoding="UTF-8" standalone="no"?>
<!-- Created with Inkscape (http://www.inkscape.org/) -->

<svg
   width="34.570713mm"
   height="34.570713mm"
   viewBox="0 0 34.570713 34.570713"
   version="1.1"
   id="svg881"
   inkscape:version="1.1.2 (0a00cf5339, 2022-02-04)"
   sodipodi:docname="wsp_icon (copy).svg"
   xmlns:inkscape="http://www.inkscape.org/namespaces/inkscape"
   xmlns:sodipodi="http://sodipodi.sourceforge.net/DTD/sodipodi-0.dtd"
   xmlns="http://www.w3.org/2000/svg"
   xmlns:svg="http://www.w3.org/2000/svg">
  <sodipodi:namedview
     id="namedview883"
     pagecolor="#ffffff"
     bordercolor="#666666"
     borderopacity="1.0"
     inkscape:pageshadow="2"
     inkscape:pageopacity="0.0"
     inkscape:pagecheckerboard="0"
     inkscape:document-units="mm"
     showgrid="false"
     fit-margin-top="0"
     fit-margin-left="0"
     fit-margin-right="0"
     fit-margin-bottom="0"
     inkscape:zoom="0.4187009"
     inkscape:cx="440.64868"
     inkscape:cy="99.116099"
     inkscape:window-width="1328"
     inkscape:window-height="704"
     inkscape:window-x="0"
     inkscape:window-y="0"
     inkscape:window-maximized="1"
     inkscape:current-layer="layer1" />
  <defs
     id="defs878" />
  <g
     inkscape:label="Layer 1"
     inkscape:groupmode="layer"
     id="layer1"
     transform="translate(-169.12954,-148.27634)">
    <g
       id="g124"
       transform="matrix(0.17638888,0,0,-0.17638888,179.28147,157.69325)"
       style="fill:#ffffff;fill-opacity:1.0">
      <path
         d="m 0,0 c 5.45,5.458 12.725,5.942 16.65,5.75 3.625,-0.167 6.467,-2.267 8.2,-4.7 l 7.933,-11.117 c 3.549,-4.971 2.986,-11.78 -1.333,-16.1 l -5.617,-5.608 c 1.859,-4.533 5.584,-11.833 10.6,-16.842 5.017,-5.008 12.309,-8.75 16.834,-10.608 l 5.625,5.617 c 4.318,4.314 11.121,4.877 16.091,1.333 L 86.108,-60.2 c 2.425,-1.742 4.534,-4.583 4.7,-8.2 0.184,-3.925 -0.3,-11.2 -5.75,-16.658 C 76.167,-93.942 62.217,-94.033 49.525,-90.55 36.608,-87 23.442,-79.383 14.55,-70.5 5.675,-61.617 -1.95,-48.45 -5.5,-35.525 -8.983,-22.833 -8.892,-8.883 0,0 m -51.225,-44.608 c 0,50.625 41.042,91.666 91.667,91.666 50.625,0 91.666,-41.041 91.666,-91.666 0,-50.625 -41.041,-91.667 -91.666,-91.667 -16.134,0 -31.309,4.167 -44.484,11.5 l -43.85,-8.167 8.167,43.85 c -7.564,13.605 -11.523,28.918 -11.5,44.484"
         style="fill:#ffffff;fill-opacity:1.0;fill-rule:evenodd;stroke:none"
         id="path126" />
    </g>
  </g>
</svg>
