<?xml version="1.0" encoding="UTF-8" standalone="no"?>
<!-- Created with Inkscape (http://www.inkscape.org/) -->

<svg
   width="34.570713mm"
   height="34.570713mm"
   viewBox="0 0 34.570713 34.570713"
   version="1.1"
   id="svg881"
   inkscape:version="1.1.2 (0a00cf5339, 2022-02-04)"
   sodipodi:docname="yt_icon (copy).svg"
   xmlns:inkscape="http://www.inkscape.org/namespaces/inkscape"
   xmlns:sodipodi="http://sodipodi.sourceforge.net/DTD/sodipodi-0.dtd"
   xmlns="http://www.w3.org/2000/svg"
   xmlns:svg="http://www.w3.org/2000/svg">
  <sodipodi:namedview
     id="namedview883"
     pagecolor="#ffffff"
     bordercolor="#666666"
     borderopacity="1.0"
     inkscape:pageshadow="2"
     inkscape:pageopacity="0.0"
     inkscape:pagecheckerboard="0"
     inkscape:document-units="mm"
     showgrid="false"
     fit-margin-top="0"
     fit-margin-left="0"
     fit-margin-right="0"
     fit-margin-bottom="0"
     inkscape:zoom="0.4187009"
     inkscape:cx="440.64868"
     inkscape:cy="99.116099"
     inkscape:window-width="1328"
     inkscape:window-height="704"
     inkscape:window-x="0"
     inkscape:window-y="0"
     inkscape:window-maximized="1"
     inkscape:current-layer="layer1" />
  <defs
     id="defs878" />
  <g
     inkscape:label="Layer 1"
     inkscape:groupmode="layer"
     id="layer1"
     transform="translate(-169.12954,-148.27634)">
    <g
       id="g128"
       transform="matrix(0.17638888,0,0,-0.17638888,185.84163,172.68287)"
       style="fill:#ffffff;fill-opacity:1.0">
      <path
         d="m 0,0 c 21.885,11.729 50.26,29.108 50.26,40.408 0,11.3 -28.375,28.68 -50.26,40.409 -11.497,6.151 -24.907,-2.36 -24.907,-15.395 V 15.395 C -24.907,2.36 -11.497,-6.151 0,0.018 Z m -78,77.872 c 0,24.167 19.583,43.75 43.75,43.75 h 75 c 24.166,0 43.75,-19.583 43.75,-43.75 v -75 c 0,-24.166 -19.584,-43.75 -43.75,-43.75 h -75 c -24.163,0 -43.75,19.588 -43.75,43.75 z m 43.75,56.25 c -31.066,0 -56.25,-25.184 -56.25,-56.25 v -75 c 0,-31.066 25.184,-56.25 56.25,-56.25 h 75 c 31.066,0 56.25,25.184 56.25,56.25 v 75 c 0,31.066 -25.184,56.25 -56.25,56.25 z"
         style="fill:#ffffff;fill-opacity:1.0;fill-rule:evenodd;stroke:none"
         id="path130" />
    </g>
  </g>
</svg>
